<svg width="180" height="64" viewBox="0 0 180 64" fill="none" xmlns="http://www.w3.org/2000/svg">
<path d="M35.1929 37.2266H31.5557V59.5796H47.1197V56.4283H35.1929V37.2266Z" fill="black"/>
<path d="M68.6024 51.0081C68.6024 54.8316 66.7415 56.7644 63.1042 56.7644C59.5093 56.7644 57.6907 54.7896 57.6907 50.9661V37.2266H54.0957V50.9241C54.0957 56.7644 57.31 59.9577 63.1042 59.9577C70.9708 59.9577 72.155 54.2854 72.155 50.9241V37.2266H68.6024V51.0081Z" fill="black"/>
<path d="M96.3427 47.9829C98.2459 47.1846 99.4301 45.4619 99.4301 43.361C99.4301 39.4114 96.6387 37.2266 91.6058 37.2266H82.5127V59.5796H91.9864C97.1039 59.5796 100.064 57.2686 100.064 53.277C100.064 50.714 98.7111 48.7812 96.3427 47.9829ZM86.0653 40.3778H91.7327C93.5936 40.3778 95.8351 40.9241 95.8351 43.4871C95.8351 45.5459 94.4818 46.5963 91.7327 46.5963H86.0653V40.3778ZM91.9441 56.4703H86.1076V49.5795H91.9441C94.8624 49.5795 96.4695 50.798 96.4695 53.0669C96.4695 55.2518 94.8624 56.4703 91.9441 56.4703Z" fill="black"/>
<path d="M15.9024 19.1597H3.51036V12.395H13.1533V9.28574H3.51036V3.15127H15.6063V0H0V22.311H15.9024V19.1597Z" fill="black"/>
<path d="M31.1692 22.311L40.3469 0H36.625L32.8609 9.7059L27.4896 0H23.5986L31.1269 13.5715L27.4896 22.311H31.1692Z" fill="black"/>
<path d="M64.9642 19.1597H52.5722V12.395H62.1728V9.28574H52.5722V3.15127H64.6681V0H49.0195V22.311H64.9642V19.1597Z" fill="black"/>
<path d="M93.3426 17.2269L88.7749 0H85.5183L81.0352 17.1849L76.7636 0H73.2109L78.836 22.311H82.7693L87.1255 5.79833L91.3548 22.311H95.3304L100.955 0H97.5297L93.3426 17.2269Z" fill="black"/>
<path d="M113.177 12.395H122.82V9.28574H113.177V3.15127H125.273V0H109.667V22.311H125.569V19.1597H113.177V12.395Z" fill="black"/>
<path d="M146.123 0H142.443L133.435 22.311H137.072L139.567 15.9664H148.872L151.452 22.311H155.3L146.207 0.210085L146.123 0ZM140.751 12.8992L144.177 4.36976L147.645 12.8992H140.751Z" fill="black"/>
<path d="M180 6.63867C180 2.31093 176.913 0 171.457 0H163.463V22.311H166.974V13.6135H171.457C171.541 13.6135 171.626 13.6135 171.711 13.6135L176.151 22.353H179.789L175.094 13.1513C178.224 12.2269 180 9.91599 180 6.63867ZM167.016 10.5042V3.10925H172.43C173.741 3.10925 174.798 3.40337 175.517 4.03362C176.236 4.62186 176.574 5.50421 176.574 6.63867C176.574 7.77313 176.194 8.65548 175.475 9.41179C174.756 10.1261 173.698 10.5042 172.43 10.5042H167.016Z" fill="black"/>
<path d="M17.6764 50.7563C17.2112 54.4958 14.6736 56.7647 10.9518 56.7647C6.68012 56.7647 3.80416 53.4033 3.80416 48.4033C3.80416 43.4033 6.68012 40.0419 10.9518 40.0419C14.7159 40.0419 17.2535 42.3529 17.7187 46.0924L21.2714 45.9243C20.5524 40.21 16.746 36.8066 10.9095 36.8066C4.60774 36.8066 0.0400391 41.6806 0.0400391 48.4033C0.0400391 55.126 4.60774 60 10.9095 60C16.746 60 20.5524 56.6386 21.1868 50.9243L17.6764 50.7563Z" fill="black"/>
</svg>
